<mxfile host="app.diagrams.net" modified="2023-04-04T01:29:09.419Z" agent="5.0 (Windows NT 10.0; Win64; x64) AppleWebKit/537.36 (KHTML, like Gecko) Chrome/101.0.0.0 Safari/537.36" etag="lwaBY0rfynBbx6J608f0" version="20.8.18" type="github">
  <diagram id="C5RBs43oDa-KdzZeNtuy" name="Page-1">
    <mxGraphModel dx="1354" dy="565" grid="1" gridSize="10" guides="1" tooltips="1" connect="1" arrows="1" fold="1" page="1" pageScale="1" pageWidth="827" pageHeight="1169" math="0" shadow="0">
      <root>
        <mxCell id="WIyWlLk6GJQsqaUBKTNV-0" />
        <mxCell id="WIyWlLk6GJQsqaUBKTNV-1" parent="WIyWlLk6GJQsqaUBKTNV-0" />
        <mxCell id="luAE3YNh0NklKac1Ez9h-2" value="" style="edgeStyle=orthogonalEdgeStyle;rounded=0;orthogonalLoop=1;jettySize=auto;html=1;" edge="1" parent="WIyWlLk6GJQsqaUBKTNV-1" source="luAE3YNh0NklKac1Ez9h-0" target="luAE3YNh0NklKac1Ez9h-1">
          <mxGeometry relative="1" as="geometry" />
        </mxCell>
        <mxCell id="luAE3YNh0NklKac1Ez9h-0" value="开始" style="ellipse;whiteSpace=wrap;html=1;" vertex="1" parent="WIyWlLk6GJQsqaUBKTNV-1">
          <mxGeometry x="260" y="40" width="120" height="60" as="geometry" />
        </mxCell>
        <mxCell id="luAE3YNh0NklKac1Ez9h-9" value="是" style="edgeStyle=orthogonalEdgeStyle;rounded=0;orthogonalLoop=1;jettySize=auto;html=1;" edge="1" parent="WIyWlLk6GJQsqaUBKTNV-1" source="luAE3YNh0NklKac1Ez9h-1" target="luAE3YNh0NklKac1Ez9h-8">
          <mxGeometry relative="1" as="geometry" />
        </mxCell>
        <mxCell id="luAE3YNh0NklKac1Ez9h-17" style="edgeStyle=orthogonalEdgeStyle;rounded=0;orthogonalLoop=1;jettySize=auto;html=1;" edge="1" parent="WIyWlLk6GJQsqaUBKTNV-1" source="luAE3YNh0NklKac1Ez9h-1" target="luAE3YNh0NklKac1Ez9h-16">
          <mxGeometry relative="1" as="geometry" />
        </mxCell>
        <mxCell id="luAE3YNh0NklKac1Ez9h-1" value="根据id判断用户是否存在" style="strokeWidth=2;html=1;shape=mxgraph.flowchart.decision;whiteSpace=wrap;" vertex="1" parent="WIyWlLk6GJQsqaUBKTNV-1">
          <mxGeometry x="270" y="140" width="100" height="80" as="geometry" />
        </mxCell>
        <mxCell id="luAE3YNh0NklKac1Ez9h-4" value="结束" style="strokeWidth=2;html=1;shape=mxgraph.flowchart.start_1;whiteSpace=wrap;" vertex="1" parent="WIyWlLk6GJQsqaUBKTNV-1">
          <mxGeometry x="270" y="500" width="100" height="60" as="geometry" />
        </mxCell>
        <mxCell id="luAE3YNh0NklKac1Ez9h-18" style="edgeStyle=orthogonalEdgeStyle;rounded=0;orthogonalLoop=1;jettySize=auto;html=1;" edge="1" parent="WIyWlLk6GJQsqaUBKTNV-1" source="luAE3YNh0NklKac1Ez9h-8" target="luAE3YNh0NklKac1Ez9h-16">
          <mxGeometry relative="1" as="geometry" />
        </mxCell>
        <mxCell id="luAE3YNh0NklKac1Ez9h-21" value="" style="edgeStyle=orthogonalEdgeStyle;rounded=0;orthogonalLoop=1;jettySize=auto;html=1;" edge="1" parent="WIyWlLk6GJQsqaUBKTNV-1" source="luAE3YNh0NklKac1Ez9h-8" target="luAE3YNh0NklKac1Ez9h-19">
          <mxGeometry relative="1" as="geometry" />
        </mxCell>
        <mxCell id="luAE3YNh0NklKac1Ez9h-8" value="判断用户名重复性" style="strokeWidth=2;html=1;shape=mxgraph.flowchart.decision;whiteSpace=wrap;" vertex="1" parent="WIyWlLk6GJQsqaUBKTNV-1">
          <mxGeometry x="270" y="270" width="100" height="90" as="geometry" />
        </mxCell>
        <mxCell id="luAE3YNh0NklKac1Ez9h-22" style="edgeStyle=orthogonalEdgeStyle;rounded=0;orthogonalLoop=1;jettySize=auto;html=1;" edge="1" parent="WIyWlLk6GJQsqaUBKTNV-1" source="luAE3YNh0NklKac1Ez9h-16" target="luAE3YNh0NklKac1Ez9h-4">
          <mxGeometry relative="1" as="geometry" />
        </mxCell>
        <mxCell id="luAE3YNh0NklKac1Ez9h-16" value="返回错误" style="rounded=1;whiteSpace=wrap;html=1;absoluteArcSize=1;arcSize=14;strokeWidth=2;" vertex="1" parent="WIyWlLk6GJQsqaUBKTNV-1">
          <mxGeometry x="490" y="500" width="100" height="60" as="geometry" />
        </mxCell>
        <mxCell id="luAE3YNh0NklKac1Ez9h-20" value="" style="edgeStyle=orthogonalEdgeStyle;rounded=0;orthogonalLoop=1;jettySize=auto;html=1;" edge="1" parent="WIyWlLk6GJQsqaUBKTNV-1" source="luAE3YNh0NklKac1Ez9h-19" target="luAE3YNh0NklKac1Ez9h-4">
          <mxGeometry relative="1" as="geometry" />
        </mxCell>
        <mxCell id="luAE3YNh0NklKac1Ez9h-19" value="提交数据库" style="rounded=1;whiteSpace=wrap;html=1;absoluteArcSize=1;arcSize=14;strokeWidth=2;" vertex="1" parent="WIyWlLk6GJQsqaUBKTNV-1">
          <mxGeometry x="270" y="400" width="100" height="50" as="geometry" />
        </mxCell>
      </root>
    </mxGraphModel>
  </diagram>
</mxfile>
